<?xml version="1.0" encoding="UTF-8"?>
<!DOCTYPE svg PUBLIC "-//W3C//DTD SVG 1.1//EN" "http://www.w3.org/Graphics/SVG/1.1/DTD/svg11.dtd">
<!-- Creator: CorelDRAW -->
<svg xmlns="http://www.w3.org/2000/svg" xml:space="preserve" width="179.2mm" height="65.1mm" version="1.1" style="shape-rendering:geometricPrecision; text-rendering:geometricPrecision; image-rendering:optimizeQuality; fill-rule:evenodd; clip-rule:evenodd"
viewBox="0 0 17920 6510"
 xmlns:xlink="http://www.w3.org/1999/xlink"
 xmlns:xodm="http://www.corel.com/coreldraw/odm/2003">
 <defs>
  <style type="text/css">
   <![CDATA[
    .fil3 {fill:#009AFE}
    .fil2 {fill:#009AFE;fill-rule:nonzero}
    .fil1 {fill:#868686;fill-rule:nonzero}
    .fil0 {fill:#868686;fill-rule:nonzero}
   ]]>
  </style>
 </defs>
 <g id="Plan_x0020_1">
  <metadata id="CorelCorpID_0Corel-Layer"/>
  <polygon class="fil0" points="-3.15,5464.86 98.53,5464.86 98.53,5889.96 615.43,5889.96 615.43,5464.86 717.11,5464.86 717.11,6478.88 615.43,6478.88 615.43,5988.82 98.53,5988.82 98.53,6478.88 -3.15,6478.88 "/>
  <path id="_1" class="fil0" d="M3381.86 5439.43c153.47,0 281.99,51.32 385.32,153.71 103.34,102.39 155.12,228.55 155.12,378.26 0,148.52 -51.55,274.45 -154.65,377.78 -103.33,103.34 -229.02,155.12 -377.55,155.12 -150.17,0 -277.04,-51.55 -380.38,-154.41 -103.33,-102.86 -155.11,-227.38 -155.11,-373.55 0,-97.45 23.54,-187.6 70.61,-270.92 47.08,-83.09 111.34,-148.29 192.78,-195.37 81.21,-47.08 169.24,-70.62 263.86,-70.62zm4.48 98.86c-74.86,0 -145.94,19.54 -213.26,58.61 -67.08,39.08 -119.57,91.57 -157.47,157.71 -37.66,66.38 -56.49,140.05 -56.49,221.49 0,120.28 41.66,221.97 125.22,304.82 83.56,83.09 184.3,124.52 302,124.52 78.85,0 151.58,-19.06 218.43,-57.2 67.08,-38.13 119.34,-90.38 156.76,-156.53 37.43,-66.14 56.26,-139.58 56.26,-220.55 0,-80.5 -18.83,-153.23 -56.26,-218.2 -37.42,-64.96 -90.38,-116.98 -158.41,-156.06 -68.02,-39.07 -140.29,-58.61 -216.78,-58.61z"/>
  <polygon id="_2" class="fil0" points="6061.21,5464.86 6162.89,5464.86 6162.89,6380.02 6554.1,6380.02 6554.1,6478.88 6061.21,6478.88 "/>
  <path id="_3" class="fil0" d="M8648.75 6478.88l0 -1014.02 210.43 0c151.59,0 261.74,12.24 330.24,36.48 98.39,34.6 175.36,94.15 230.67,179.36 55.32,84.97 83.09,186.19 83.09,303.88 0,101.68 -21.89,190.89 -65.9,268.1 -43.78,77.2 -100.98,134.4 -170.89,171.12 -70.14,36.72 -168.53,55.08 -294.93,55.08l-322.71 0zm97.45 -96.04l116.98 0c139.82,0 236.56,-8.7 290.7,-26.12 76.03,-24.95 136.05,-69.44 179.59,-133.94 43.55,-64.73 65.21,-143.58 65.21,-236.79 0,-97.68 -23.54,-181.48 -70.85,-250.68 -47.08,-69.44 -112.99,-116.99 -197.25,-142.64 -63.32,-19.3 -167.6,-28.95 -312.83,-28.95l-71.55 0 0 819.12z"/>
  <polygon id="_4" class="fil0" points="11620.91,5464.86 11722.59,5464.86 11722.59,6478.88 11620.91,6478.88 "/>
  <polygon id="_5" class="fil0" points="13890.92,6478.88 13890.92,5464.86 13912.81,5464.86 14587.18,6240.44 14587.18,5464.86 14688.87,5464.86 14688.87,6478.88 14665.8,6478.88 13995.43,5710.12 13995.43,6478.88 "/>
  <path id="_6" class="fil0" d="M17849.56 5634.8l-78.62 74.38c-56.73,-55.55 -118.87,-97.68 -186.42,-126.4 -67.56,-28.71 -133.46,-43.07 -197.72,-43.07 -79.8,0 -155.82,19.53 -227.85,58.61 -72.26,39.07 -128.28,92.03 -167.83,159.12 -39.78,66.84 -59.55,137.46 -59.55,212.07 0,76.27 20.48,148.77 61.43,217.73 40.96,68.73 97.69,122.64 169.95,161.94 72.5,39.31 151.59,59.09 237.74,59.09 104.51,0 193.01,-29.43 265.27,-88.04 72.26,-58.61 115.1,-134.87 128.52,-228.32l-323.42 0 0 -98.86 437.81 0c-0.94,156.53 -47.54,281.05 -139.81,373.08 -92.51,92.04 -215.85,138.17 -370.73,138.17 -187.83,0 -336.59,-63.79 -446.28,-191.6 -84.27,-98.39 -126.4,-212.08 -126.4,-341.3 0,-95.8 24.24,-185.25 72.5,-268.1 48.48,-82.62 114.86,-147.35 199.13,-193.96 84.5,-46.6 179.83,-69.91 286.22,-69.91 86.15,0 167.36,15.54 243.39,46.37 76.03,31.08 150.41,80.51 222.67,149z"/>
  <path class="fil1" d="M-3.15 5461.05l105.49 0 0 425.1 509.28 0 0 -425.1 109.3 0 0 1021.64 -109.3 0 0 -490.06 -509.28 0 0 490.06 -109.3 0 0 -1021.64 3.81 0zm97.87 7.62l-94.06 0 0 1006.4 94.06 0 0 -490.06 524.52 0 0 490.06 94.06 0 0 -1006.4 -94.06 0 0 425.1 -524.52 0 0 -425.1zm3287.14 -33.05c77.18,0 148.14,12.92 212.82,38.72 64.72,25.82 123.14,64.54 175.18,116.11 52.03,51.55 91.1,109.13 117.16,172.67 26.04,63.52 39.09,132.97 39.09,208.28 0,149.56 -51.93,276.39 -155.77,380.46 -52.01,52.02 -109.69,91.09 -173.08,117.14 -63.37,26.06 -132.43,39.11 -207.16,39.11 -75.55,0 -145.3,-12.98 -209.14,-38.9 -63.87,-25.92 -121.87,-64.83 -173.92,-116.63 -52.03,-51.8 -91.12,-109.09 -117.16,-171.82 -26.03,-62.71 -39.08,-130.88 -39.08,-204.42 0,-49.02 5.93,-96.25 17.78,-141.71 11.84,-45.42 29.63,-89.11 53.34,-131.07 23.7,-41.87 51.77,-79.23 84.15,-112.04 32.36,-32.8 69.05,-61.08 110.02,-84.76 40.89,-23.71 83.52,-41.5 127.8,-53.35 44.32,-11.85 90.33,-17.79 137.97,-17.79zm210.02 45.78c-63.74,-25.43 -133.77,-38.16 -210.02,-38.16 -46.98,0 -92.34,5.85 -136.01,17.53 -43.65,11.68 -85.66,29.22 -125.94,52.57 -40.42,23.36 -76.58,51.22 -108.42,83.5 -31.91,32.34 -59.59,69.19 -82.97,110.46 -23.35,41.32 -40.89,84.41 -52.58,129.23 -11.68,44.8 -17.52,91.4 -17.52,139.81 0,72.56 12.84,139.75 38.48,201.5 25.66,61.81 64.19,118.28 115.5,169.36 51.29,51.05 108.46,89.4 171.42,114.95 62.92,25.55 131.72,38.34 206.28,38.34 73.78,0 141.88,-12.85 204.28,-38.51 62.42,-25.65 119.26,-64.17 170.58,-115.49 102.35,-102.57 153.53,-227.61 153.53,-375.09 0,-74.36 -12.85,-142.86 -38.49,-205.4 -25.66,-62.58 -64.19,-119.33 -115.5,-170.17 -51.3,-50.84 -108.86,-89 -172.62,-114.43zm-205.54 60.7c-37.12,0 -73.29,4.84 -108.46,14.5 -35.18,9.67 -69.5,24.22 -102.89,43.59 -33.26,19.38 -62.91,42.08 -88.9,68.1 -25.99,26.02 -48.4,55.43 -67.18,88.21 -18.64,32.85 -32.64,67.57 -41.98,104.15 -9.32,36.56 -14,75.05 -14,115.45 0,59.69 10.34,114.76 31.01,165.09 20.66,50.3 51.69,96.01 93.08,137.04 41.4,41.16 87.04,72.02 136.87,92.56 49.88,20.57 104.05,30.84 162.45,30.84 39.11,0 76.7,-4.72 112.76,-14.17 36.06,-9.44 70.67,-23.63 103.79,-42.52 33.21,-18.87 62.79,-41.27 88.66,-67.1 25.88,-25.85 48.13,-55.22 66.68,-88.01 18.52,-32.74 32.47,-67.34 41.78,-103.77 9.29,-36.43 13.97,-74.73 13.97,-114.9 0,-39.92 -4.66,-77.9 -13.94,-113.88 -9.29,-36.08 -23.25,-70.23 -41.8,-102.43 -18.49,-32.12 -40.86,-61.07 -66.99,-86.81 -26.21,-25.82 -56.25,-48.45 -90.02,-67.85 -33.68,-19.35 -68.47,-33.89 -104.3,-43.57 -35.81,-9.68 -72.69,-14.52 -110.59,-14.52zm-110.46 7.18c35.9,-9.85 72.73,-14.8 110.46,-14.8 38.56,0 76.1,4.93 112.55,14.78 36.41,9.84 71.8,24.63 106.12,44.35 34.34,19.73 64.91,42.75 91.56,69.01 26.62,26.22 49.4,55.72 68.25,88.45 18.9,32.81 33.12,67.59 42.58,104.33 9.45,36.66 14.2,75.26 14.2,115.76 0,40.8 -4.76,79.72 -14.21,116.78 -9.46,37.04 -23.68,72.27 -42.56,105.65 -18.88,33.37 -41.54,63.28 -67.92,89.63 -26.35,26.31 -56.45,49.11 -90.26,68.32 -33.71,19.23 -68.93,33.67 -105.65,43.28 -36.71,9.62 -74.95,14.43 -114.66,14.43 -59.35,0 -114.48,-10.47 -165.33,-31.44 -50.77,-20.93 -97.25,-52.34 -139.35,-94.2 -42.11,-41.74 -73.69,-88.29 -94.74,-139.54 -21.07,-51.3 -31.61,-107.33 -31.61,-167.97 0,-41.03 4.76,-80.14 14.24,-117.33 9.49,-37.2 23.76,-72.54 42.76,-106.04 19.11,-33.36 41.92,-63.29 68.4,-89.8 26.49,-26.52 56.66,-49.63 90.46,-69.32 33.91,-19.67 68.84,-34.47 104.71,-44.33zm2785.33 -88.23l105.49 0 0 915.16 391.21 0 0 106.48 -500.51 0 0 -1021.64 3.81 0zm97.87 7.62l-94.06 0 0 1006.4 485.27 0 0 -91.24 -391.21 0 0 -915.16zm2485.86 1010.21l0 -1017.83 214.24 0c75.8,0 141.34,3.07 196.52,9.16 55.43,6.12 100.45,15.33 134.99,27.54 49.6,17.45 93.81,41.19 132.56,71.28 38.77,30.11 72.13,66.62 100.02,109.6 27.87,42.81 48.81,89.73 62.77,140.74 13.95,51 20.95,106.07 20.95,165.21 0,51.11 -5.52,99.15 -16.57,144.14 -11.05,44.99 -27.66,86.94 -49.84,125.84 -22.04,38.87 -47.49,72.73 -76.21,101.49 -28.79,28.83 -60.91,52.57 -96.21,71.11 -35.42,18.54 -77.92,32.45 -127.41,41.69 -49.43,9.22 -105.88,13.84 -169.29,13.84l-326.52 0 0 -3.81zm7.62 -1010.21l0 1006.4 318.9 0c62.99,0 118.99,-4.57 167.89,-13.7 48.79,-9.11 90.58,-22.77 125.27,-40.93 34.63,-18.18 66.13,-41.47 94.37,-69.75 28.25,-28.28 53.28,-61.61 74.99,-99.89 21.82,-38.28 38.18,-79.58 49.06,-123.9 10.89,-44.34 16.33,-91.76 16.33,-142.32 0,-58.53 -6.9,-112.94 -20.65,-163.21 -13.75,-50.25 -34.37,-96.45 -61.81,-138.6 -27.39,-42.2 -60.2,-78.1 -98.34,-107.72 -38.13,-29.61 -81.63,-52.98 -130.4,-70.12 -34.04,-12.03 -78.49,-21.11 -133.31,-27.16 -54.82,-6.05 -120.08,-9.1 -195.68,-9.1l-206.62 0zm97.45 910.36l113.17 0c69.91,0 128.95,-2.17 177.15,-6.5 48.1,-4.32 85.56,-10.81 112.37,-19.42 37.69,-12.37 71.41,-29.61 101.07,-51.72 29.52,-22.02 55.07,-48.92 76.54,-80.74 21.55,-32.02 37.7,-67.57 48.44,-106.58 10.75,-39.09 16.12,-81.78 16.12,-128.08 0,-48.56 -5.86,-93.66 -17.58,-135.15 -11.68,-41.35 -29.22,-79.19 -52.6,-113.39 -23.25,-34.3 -51.18,-63.24 -83.69,-86.74 -32.58,-23.57 -69.8,-41.71 -111.52,-54.41 -31.4,-9.57 -73.07,-16.77 -124.94,-21.56 -51.91,-4.8 -114.19,-7.21 -186.79,-7.21l-67.74 0 0 811.5zm113.17 7.62l-120.79 0 0 -826.74 75.36 0c72.63,0 135.13,2.43 187.47,7.27 52.39,4.84 94.56,12.14 126.46,21.86 42.57,12.96 80.55,31.48 113.78,55.51 33.2,24 61.74,53.57 85.51,88.62 23.85,34.88 41.73,73.48 53.64,115.61 11.92,42.19 17.88,87.98 17.88,137.21 0,46.9 -5.47,90.27 -16.42,130.08 -10.97,39.85 -27.45,76.14 -49.44,108.82 -21.95,32.55 -48.09,60.07 -78.3,82.6 -30.33,22.61 -64.78,40.23 -103.27,52.85 -27.33,8.78 -65.34,15.38 -114.07,19.75 -48.64,4.37 -107.9,6.56 -177.81,6.56zm2757.73 -925.6l105.49 0 0 1021.64 -109.3 0 0 -1021.64 3.81 0zm97.87 7.62l-94.06 0 0 1006.4 94.06 0 0 -1006.4zm2168.33 1010.21l0 -1017.83 27.42 0 668.84 769.22 0 -769.22 109.31 0 0 1021.64 -28.6 0 -664.84 -762.42 0 762.42 -112.13 0 0 -3.81zm7.62 -1010.21l0 1006.4 96.89 0 0 -775.1 675.9 775.1 17.54 0 0 -1006.4 -94.07 0 0 781.94 -679.9 -781.94 -16.36 0zm3957.43 168.88l-81.28 76.89 -2.6 -2.55c-28.2,-27.61 -57.75,-51.9 -88.62,-72.83 -30.83,-20.91 -63.05,-38.51 -96.63,-52.78 -33.54,-14.25 -66.69,-24.96 -99.41,-32.08 -32.67,-7.11 -64.96,-10.68 -96.82,-10.68 -39.62,0 -78.29,4.85 -115.93,14.53 -37.61,9.67 -74.35,24.23 -110.1,43.62 -35.85,19.38 -67.66,42.19 -95.38,68.45 -27.73,26.27 -51.41,56.03 -71,89.25 -19.71,33.1 -34.48,67.19 -44.3,102.22 -9.81,34.97 -14.71,70.96 -14.71,107.92 0,37.8 5.07,74.66 15.21,110.58 10.15,35.95 25.38,71.03 45.67,105.2 20.27,34.01 44.46,64.4 72.49,91.11 28.12,26.79 60.16,49.95 96.01,69.45 35.99,19.49 73.61,34.16 112.85,43.93 39.28,9.77 80.3,14.68 123.08,14.68 51.85,0 99.71,-7.29 143.48,-21.81 43.78,-14.53 83.6,-36.34 119.39,-65.37 35.73,-28.98 64.2,-62.34 85.37,-99.94 20.53,-36.49 34.26,-77.06 41.13,-121.62l-322.81 0 0 -106.48 445.44 0 -0.02 3.82c-0.47,78.73 -12.45,149.47 -35.92,212.09 -23.49,62.7 -58.51,117.29 -105.01,163.67 -46.63,46.4 -101.07,81.24 -163.34,104.47 -62.19,23.2 -132.21,34.82 -210.07,34.82 -94.42,0 -179.08,-16.06 -253.93,-48.18 -74.91,-32.14 -140,-80.4 -195.24,-144.76 -42.41,-49.52 -74.26,-102.95 -95.48,-160.25 -21.22,-57.29 -31.84,-118.47 -31.84,-183.52 0,-48.21 6.1,-94.84 18.26,-139.82 12.18,-45.04 30.46,-88.46 54.76,-130.19 24.44,-41.64 53.4,-78.78 86.84,-111.34 33.41,-32.55 71.35,-60.59 113.75,-84.04 42.53,-23.45 87.82,-41.06 135.84,-52.79 48.01,-11.72 98.76,-17.6 152.21,-17.6 43.25,0 85.3,3.91 126.06,11.67 40.88,7.79 80.5,19.47 118.76,34.98 38.44,15.73 76.45,36.1 113.91,61.16 37.12,24.85 73.82,54.37 109.95,88.62l2.89 2.74 -2.91 2.76zm-81.17 66.38l73.05 -69.12c-34.87,-32.77 -70.24,-61.11 -106.03,-85.06 -37.1,-24.82 -74.64,-44.94 -112.54,-60.44 -37.83,-15.31 -76.97,-26.86 -117.31,-34.54 -40.28,-7.67 -81.86,-11.53 -124.66,-11.53 -52.92,0 -103.08,5.8 -150.43,17.36 -47.33,11.56 -92,28.93 -133.96,52.07 -41.81,23.12 -79.2,50.75 -112.11,82.82 -32.98,32.1 -61.51,68.7 -85.57,109.71 -23.95,41.16 -41.96,83.95 -53.97,128.34 -11.99,44.34 -18,90.32 -18,137.86 0,64.16 10.46,124.47 31.36,180.9 20.9,56.44 52.29,109.09 94.12,157.93 54.45,63.45 118.62,111.02 192.44,142.7 73.89,31.71 157.56,47.56 250.95,47.56 77,0 146.13,-11.45 207.43,-34.32 61.23,-22.84 114.77,-57.11 160.62,-102.73 45.72,-45.6 80.15,-99.28 103.25,-160.93 22.77,-60.77 34.59,-129.36 35.41,-205.65l-430.17 0 0 91.24 324 0 -0.62 4.35c-6.77,47.21 -21.01,90.12 -42.68,128.61 -21.65,38.45 -50.73,72.53 -87.21,102.12 -36.49,29.59 -77.11,51.84 -121.81,66.67 -44.61,14.8 -93.27,22.23 -145.86,22.23 -43.35,0 -84.98,-4.99 -124.9,-14.92 -39.95,-9.94 -78.17,-24.84 -114.66,-44.63 -36.46,-19.85 -69.03,-43.39 -97.62,-70.63 -28.53,-27.19 -53.15,-58.1 -73.77,-92.71 -20.64,-34.78 -36.15,-70.46 -46.47,-107.04 -10.34,-36.63 -15.51,-74.19 -15.51,-112.64 0,-37.62 4.99,-74.28 15.01,-109.98 9.99,-35.61 25.02,-70.3 45.09,-104.02 19.94,-33.84 44.06,-64.15 72.29,-90.89 28.23,-26.75 60.59,-49.96 96.98,-69.64 36.24,-19.67 73.56,-34.44 111.86,-44.29 38.32,-9.85 77.61,-14.79 117.81,-14.79 32.39,0 65.2,3.63 98.42,10.86 33.19,7.23 66.8,18.08 100.79,32.52 33.96,14.43 66.61,32.28 97.91,53.5 30.3,20.54 59.34,44.27 87.07,71.15z"/>
  <polygon class="fil2" points="9540.13,906.99 9863.09,906.99 9863.09,4127.7 9540.13,4127.7 "/>
  <polygon id="_1_6" class="fil2" points="10603.23,4127.7 10603.23,906.99 10672.76,906.99 12814.66,3370.37 12814.66,906.99 13137.63,906.99 13137.63,4127.7 13064.37,4127.7 10935.17,1686 10935.17,4127.7 "/>
  <polygon id="_2_7" class="fil2" points="13921.13,906.99 15764.74,906.99 15764.74,1220.99 14244.1,1220.99 14244.1,2230.26 15751.28,2230.26 15751.28,2544.26 14244.1,2544.26 14244.1,3813.7 15751.28,3813.7 15751.28,4127.7 13921.13,4127.7 "/>
  <polygon class="fil2" points="235.2,906.99 558.16,906.99 558.16,4127.7 235.2,4127.7 "/>
  <polygon id="_1_8" class="fil2" points="1298.3,4127.7 1298.3,906.99 1367.83,906.99 3509.73,3370.37 3509.73,906.99 3832.7,906.99 3832.7,4127.7 3759.44,4127.7 1630.24,1686 1630.24,4127.7 "/>
  <path class="fil2" d="M17331.84 4118.65l-51.78 -86.15c112.04,-60.73 168.06,-130.87 168.06,-210.43 0,-34.13 -8,-66.14 -23.77,-96.04 -15.77,-29.89 -37.19,-52.72 -63.79,-68.26 -26.6,-15.77 -54.84,-23.54 -84.74,-23.54 -33.89,0 -67.08,11.54 -99.8,34.61 -44.96,31.77 -99.33,89.68 -162.65,174.18 -64.02,84.74 -110.16,137.46 -138.64,158.17 -47.78,36.02 -99.57,53.91 -155.12,53.91 -44.01,0 -84.26,-10.59 -120.51,-31.78 -36.25,-21.18 -64.73,-51.08 -85.68,-89.68 -20.95,-38.6 -31.31,-80.26 -31.31,-125.46 0,-48.02 11.77,-92.97 35.55,-134.64 23.54,-41.66 67.08,-85.91 130.4,-132.52l62.85 82.86c-50.61,38.37 -84.04,71.08 -100.04,98.15 -16.24,27.07 -24.25,56.49 -24.25,88.27 0,41.19 12.48,74.85 37.19,100.98 24.95,26.13 55.32,39.31 91.8,39.31 21.89,0 43.31,-4.71 64.03,-13.89 20.71,-9.18 43.07,-26.13 67.55,-50.61 12.71,-13.18 46.61,-57.19 101.22,-131.58 64.96,-88.03 122.63,-148.52 173,-181.24 50.61,-32.72 101.45,-49.19 152.53,-49.19 73.44,0 137.46,28.01 191.6,83.79 54.37,56.02 81.44,124.05 81.44,204.08 0,61.67 -16.48,117.69 -49.43,167.83 -32.95,50.13 -88.27,96.5 -165.71,138.87z"/>
  <path id="_1_9" class="fil2" d="M16507.54 2895.61l1014.02 -473.12 0 108.98 -333.3 158.18 0 439.69 333.3 157.47 0 112.99 -1014.02 -478.77 0 -25.42zm212.55 12.71l369.31 174.42 0 -348.13 -369.31 173.71z"/>
  <path id="_2_10" class="fil2" d="M16507.54 2260.55l0 -202.43c0,-112.74 4.7,-189.24 13.88,-229.26 13.66,-60.49 43.08,-109.45 88.51,-147.11 45.19,-37.9 100.98,-56.73 167.12,-56.73 55.08,0 103.57,12.95 145.23,39.07 41.9,25.9 73.44,63.09 94.86,111.58 21.42,48.25 32.24,115.1 32.72,200.31l471.7 -365.08 0 124.52 -471.7 365.07 0 58.38 471.7 0 0 101.68 -1014.02 0zm98.86 -101.68l344.59 0 1.42 -175.13c0,-68.02 -6.36,-118.16 -19.3,-150.64 -12.95,-32.48 -33.43,-57.91 -61.67,-76.27 -28.25,-18.12 -59.79,-27.3 -94.86,-27.3 -33.9,0 -64.97,9.18 -92.74,27.78 -27.78,18.36 -47.55,42.6 -59.55,72.73 -12.01,29.89 -17.89,79.79 -17.89,149.47l0 179.36z"/>
  <polygon id="_3_11" class="fil2" points="16507.54,1408.94 16507.54,1307.26 17422.7,1307.26 17422.7,916.05 17521.56,916.05 17521.56,1408.94 "/>
  <polygon class="fil2" points="5842.47,915.3 7457.3,915.3 7457.3,1229.29 6165.44,1229.29 6165.44,2238.56 7457.3,2238.56 7457.3,2552.55 6165.44,2552.55 6165.44,4135.98 5842.47,4135.98 "/>
  <path class="fil3" d="M4212.85 4.3l5023.4 0 0 5023.4 -5023.4 0 0 -5023.4zm403.92 401.08l4215.56 0 0 4221.24 -4215.56 0 0 -4221.24z"/>
 </g>
</svg>
